<svg width="32" height="32" viewBox="0 0 32 32" fill="none" xmlns="http://www.w3.org/2000/svg">
  <defs>
    <linearGradient id="carGradient" x1="0%" y1="0%" x2="100%" y2="100%">
      <stop offset="0%" style="stop-color:#FFD700;stop-opacity:1" />
      <stop offset="50%" style="stop-color:#FFA500;stop-opacity:1" />
      <stop offset="100%" style="stop-color:#FF8C00;stop-opacity:1" />
    </linearGradient>
    <linearGradient id="roofGradient" x1="0%" y1="0%" x2="100%" y2="100%">
      <stop offset="0%" style="stop-color:#1E3A5F;stop-opacity:1" />
      <stop offset="100%" style="stop-color:#0F1F35;stop-opacity:1" />
    </linearGradient>
  </defs>
  
  <!-- Sombra del coche -->
  <ellipse cx="16" cy="26" rx="12" ry="2" fill="#000000" opacity="0.2"/>
  
  <!-- Cuerpo principal del taxi -->
  <rect x="4" y="16" width="24" height="8" rx="2" fill="url(#carGradient)"/>
  
  <!-- Techo del taxi -->
  <rect x="8" y="12" width="16" height="6" rx="1" fill="url(#roofGradient)"/>
  
  <!-- Ventanas -->
  <rect x="9" y="13" width="4" height="3" rx="0.5" fill="#87CEEB" opacity="0.8"/>
  <rect x="19" y="13" width="4" height="3" rx="0.5" fill="#87CEEB" opacity="0.8"/>
  
  <!-- Parabrisas -->
  <rect x="13.5" y="13" width="5" height="3" rx="0.5" fill="#87CEEB" opacity="0.8"/>
  
  <!-- Ruedas -->
  <circle cx="8" cy="24" r="3" fill="#2C2C2C"/>
  <circle cx="24" cy="24" r="3" fill="#2C2C2C"/>
  <circle cx="8" cy="24" r="1.5" fill="#1A1A1A"/>
  <circle cx="24" cy="24" r="1.5" fill="#1A1A1A"/>
  
  <!-- Letrero TAXI -->
  <rect x="11" y="8" width="10" height="3" rx="1" fill="#FFD700"/>
  <text x="16" y="10.2" text-anchor="middle" font-family="Arial, sans-serif" font-size="2.5" font-weight="bold" fill="#000000">TAXI</text>
  
  <!-- Faros -->
  <circle cx="4.5" cy="18" r="1" fill="#FFFACD"/>
  <circle cx="27.5" cy="18" r="1" fill="#FF4444"/>
  
  <!-- Detalles decorativos -->
  <rect x="6" y="20" width="20" height="1" fill="#CC9900" opacity="0.7"/>
  <circle cx="12" cy="17" r="0.5" fill="#CC9900"/>
  <circle cx="20" cy="17" r="0.5" fill="#CC9900"/>
</svg>